<svg width="321" height="63" viewBox="0 0 321 63" fill="none" xmlns="http://www.w3.org/2000/svg">
<path d="M83.264 38.964C83 38.964 82.7 38.904 82.364 38.784C82.028 38.64 81.728 38.46 81.464 38.244C81.224 38.004 81.104 37.764 81.104 37.524C81.104 34.764 81.128 32.052 81.176 29.388C81.224 26.7 81.284 24.036 81.356 21.396C81.452 18.756 81.56 16.128 81.68 13.512C81.704 12.912 81.956 12.468 82.436 12.18C82.916 11.868 83.468 11.712 84.092 11.712C84.5 11.712 84.896 11.772 85.28 11.892C85.688 11.988 86.024 12.168 86.288 12.432C86.552 12.696 86.672 13.056 86.648 13.512C86.528 16.128 86.42 18.756 86.324 21.396C86.252 24.036 86.192 26.7 86.144 29.388C86.096 32.052 86.072 34.764 86.072 37.524C86.072 37.716 85.964 37.896 85.748 38.064C85.556 38.232 85.292 38.388 84.956 38.532C84.644 38.652 84.332 38.76 84.02 38.856C83.708 38.928 83.456 38.964 83.264 38.964ZM85.568 40.008C84.968 40.008 84.332 39.984 83.66 39.936C83.012 39.888 82.4 39.816 81.824 39.72C81.104 39.6 80.588 39.348 80.276 38.964C79.964 38.556 79.808 38.088 79.808 37.56C79.808 37.08 79.988 36.636 80.348 36.228C80.732 35.796 81.284 35.592 82.004 35.616C82.628 35.664 83.252 35.712 83.876 35.76C84.5 35.784 85.112 35.796 85.712 35.796C86.984 35.796 88.184 35.7 89.312 35.508C90.44 35.316 91.424 35.016 92.264 34.608C93.128 34.176 93.8 33.624 94.28 32.952C94.784 32.256 95.036 31.416 95.036 30.432C95.036 29.208 94.64 28.32 93.848 27.768C93.08 27.216 91.916 26.94 90.356 26.94C89.564 26.94 88.64 27.024 87.584 27.192C86.552 27.36 85.46 27.564 84.308 27.804C83.972 27.852 83.648 27.78 83.336 27.588C83.024 27.372 82.772 27.096 82.58 26.76C82.388 26.4 82.292 26.028 82.292 25.644C82.292 25.428 82.34 25.164 82.436 24.852C82.556 24.516 82.724 24.216 82.94 23.952C83.18 23.688 83.492 23.532 83.876 23.484C86.708 23.148 88.988 22.704 90.716 22.152C92.444 21.6 93.692 20.952 94.46 20.208C95.252 19.44 95.648 18.576 95.648 17.616C95.648 16.896 95.408 16.332 94.928 15.924C94.472 15.492 93.836 15.192 93.02 15.024C92.228 14.832 91.316 14.736 90.284 14.736C89.204 14.736 88.028 14.868 86.756 15.132C85.484 15.396 84.248 15.624 83.048 15.816C82.232 15.912 81.572 15.792 81.068 15.456C80.588 15.12 80.348 14.604 80.348 13.908C80.348 13.212 80.648 12.696 81.248 12.36C81.848 12 82.532 11.748 83.3 11.604C84.404 11.388 85.58 11.196 86.828 11.028C88.1 10.836 89.288 10.74 90.392 10.74C92.192 10.74 93.872 10.98 95.432 11.46C96.992 11.94 98.252 12.648 99.212 13.584C100.172 14.496 100.652 15.648 100.652 17.04C100.652 17.952 100.448 18.864 100.04 19.776C99.632 20.688 99.02 21.528 98.204 22.296C97.388 23.064 96.344 23.7 95.072 24.204C96.128 24.516 97.028 24.96 97.772 25.536C98.54 26.088 99.14 26.784 99.572 27.624C100.004 28.44 100.22 29.436 100.22 30.612C100.22 32.316 99.788 33.768 98.924 34.968C98.084 36.168 96.956 37.14 95.54 37.884C94.148 38.628 92.588 39.168 90.86 39.504C89.132 39.84 87.368 40.008 85.568 40.008ZM106.956 13.296C106.98 12.84 107.124 12.48 107.388 12.216C107.652 11.952 107.988 11.772 108.396 11.676C108.804 11.556 109.224 11.496 109.656 11.496C110.28 11.496 110.832 11.628 111.312 11.892C111.792 12.156 112.008 12.624 111.96 13.296C111.864 15.096 111.756 17.04 111.636 19.128C111.54 21.192 111.432 23.304 111.312 25.464C111.192 27.624 111.072 29.748 110.952 31.836C110.856 33.9 110.772 35.844 110.7 37.668C110.676 38.316 110.424 38.772 109.944 39.036C109.488 39.324 108.948 39.468 108.324 39.468C107.916 39.468 107.496 39.408 107.064 39.288C106.656 39.168 106.32 38.976 106.056 38.712C105.792 38.448 105.66 38.1 105.66 37.668L106.956 13.296ZM122.558 37.884C122.51 38.532 122.27 38.988 121.838 39.252C121.43 39.54 120.878 39.684 120.182 39.684C119.822 39.684 119.438 39.624 119.03 39.504C118.622 39.384 118.286 39.18 118.022 38.892C117.758 38.58 117.638 38.172 117.662 37.668C117.83 35.58 117.974 33.408 118.094 31.152C118.214 28.872 118.298 26.628 118.346 24.42C118.418 22.212 118.454 20.172 118.454 18.3C118.478 16.404 118.466 14.808 118.418 13.512C118.394 12.84 118.634 12.264 119.138 11.784C119.666 11.304 120.266 11.064 120.938 11.064C121.442 11.064 121.922 11.16 122.378 11.352C122.858 11.544 123.242 11.892 123.53 12.396C124.034 13.188 124.634 14.124 125.33 15.204C126.05 16.26 126.818 17.424 127.634 18.696C128.474 19.944 129.326 21.228 130.19 22.548C131.078 23.868 131.93 25.176 132.746 26.472C133.586 27.768 134.354 28.992 135.05 30.144C135.098 28.776 135.158 27.336 135.23 25.824C135.302 24.312 135.374 22.8 135.446 21.288C135.542 19.752 135.638 18.288 135.734 16.896C135.854 15.48 135.962 14.184 136.058 13.008C136.082 12.384 136.286 11.928 136.67 11.64C137.054 11.328 137.606 11.16 138.326 11.136C139.118 11.088 139.754 11.28 140.234 11.712C140.738 12.144 140.966 12.708 140.918 13.404C140.798 14.388 140.69 15.624 140.594 17.112C140.498 18.6 140.39 20.232 140.27 22.008C140.174 23.784 140.078 25.608 139.982 27.48C139.91 29.352 139.838 31.176 139.766 32.952C139.718 34.728 139.682 36.372 139.658 37.884C139.658 38.364 139.514 38.748 139.226 39.036C138.962 39.348 138.638 39.576 138.254 39.72C137.87 39.864 137.498 39.936 137.138 39.936C136.61 39.936 136.118 39.828 135.662 39.612C135.206 39.396 134.846 39.072 134.582 38.64C133.742 37.128 132.866 35.652 131.954 34.212C131.042 32.748 130.118 31.284 129.182 29.82C128.246 28.356 127.286 26.88 126.302 25.392C125.318 23.904 124.322 22.404 123.314 20.892C123.29 23.868 123.206 26.772 123.062 29.604C122.942 32.412 122.774 35.172 122.558 37.884ZM149.677 38.352C149.341 39.072 148.909 39.528 148.381 39.72C147.853 39.912 147.229 40.008 146.509 40.008C145.957 40.008 145.513 39.9 145.177 39.684C144.865 39.492 144.637 39.252 144.493 38.964C144.373 38.676 144.313 38.424 144.313 38.208C144.313 38.016 144.337 37.86 144.385 37.74C144.433 37.596 144.481 37.464 144.529 37.344C145.009 36.288 145.573 34.992 146.221 33.456C146.893 31.92 147.601 30.276 148.345 28.524C149.089 26.748 149.833 24.984 150.577 23.232C151.321 21.456 152.005 19.812 152.629 18.3C153.277 16.788 153.817 15.516 154.249 14.484C154.681 13.428 154.969 12.744 155.113 12.432C155.401 11.76 155.749 11.316 156.157 11.1C156.565 10.86 157.105 10.74 157.777 10.74C158.713 10.74 159.433 10.992 159.937 11.496C160.441 12 160.837 12.672 161.125 13.512C161.941 15.888 162.865 18.42 163.897 21.108C164.929 23.772 166.081 26.472 167.353 29.208C168.625 31.92 170.017 34.572 171.529 37.164C171.577 37.26 171.613 37.38 171.637 37.524C171.685 37.644 171.709 37.764 171.709 37.884C171.709 38.484 171.457 38.94 170.953 39.252C170.449 39.564 169.885 39.72 169.261 39.72C168.637 39.72 168.073 39.624 167.569 39.432C167.065 39.264 166.669 38.928 166.381 38.424C165.709 37.2 165.001 35.76 164.257 34.104C163.513 32.448 162.757 30.684 161.989 28.812C161.245 26.94 160.513 25.044 159.793 23.124C159.073 21.18 158.389 19.296 157.741 17.472C157.069 19.128 156.397 20.868 155.725 22.692C155.053 24.516 154.381 26.352 153.709 28.2C153.037 30.024 152.365 31.8 151.693 33.528C151.021 35.256 150.349 36.864 149.677 38.352ZM154.285 31.476C153.973 31.476 153.637 31.392 153.277 31.224C152.917 31.056 152.617 30.804 152.377 30.468C152.137 30.108 152.017 29.664 152.017 29.136C152.017 28.512 152.197 28.032 152.557 27.696C152.917 27.336 153.421 27.096 154.069 26.976C154.717 26.832 155.461 26.76 156.301 26.76C157.309 26.76 158.281 26.796 159.217 26.868C160.153 26.916 161.005 26.988 161.773 27.084C162.541 27.156 163.153 27.228 163.609 27.3C164.233 27.372 164.689 27.588 164.977 27.948C165.289 28.308 165.445 28.836 165.445 29.532C165.445 30.276 165.253 30.852 164.869 31.26C164.509 31.644 164.089 31.812 163.609 31.764C162.361 31.62 161.281 31.512 160.369 31.44C159.481 31.368 158.593 31.332 157.705 31.332C157.105 31.332 156.505 31.356 155.905 31.404C155.329 31.428 154.789 31.452 154.285 31.476ZM180.174 15.924C179.574 16.02 179.118 15.852 178.806 15.42C178.494 14.964 178.338 14.424 178.338 13.8C178.338 13.608 178.362 13.368 178.41 13.08C178.482 12.792 178.602 12.528 178.77 12.288C178.962 12.048 179.202 11.904 179.49 11.856C180.258 11.736 181.038 11.64 181.83 11.568C182.646 11.496 183.462 11.46 184.278 11.46C185.526 11.46 186.798 11.58 188.094 11.82C189.39 12.06 190.578 12.444 191.658 12.972C192.762 13.5 193.65 14.196 194.322 15.06C194.994 15.924 195.318 16.992 195.294 18.264C195.294 19.704 194.982 20.988 194.358 22.116C193.734 23.22 192.906 24.168 191.874 24.96C190.866 25.752 189.726 26.388 188.454 26.868C187.182 27.348 185.886 27.696 184.566 27.912C186.414 29.376 188.13 30.84 189.714 32.304C191.322 33.744 192.894 35.28 194.43 36.912C194.574 37.056 194.682 37.224 194.754 37.416C194.826 37.584 194.862 37.788 194.862 38.028C194.862 38.484 194.742 38.904 194.502 39.288C194.262 39.672 193.938 39.984 193.53 40.224C193.122 40.464 192.678 40.584 192.198 40.584C191.862 40.584 191.55 40.488 191.262 40.296C190.998 40.104 190.578 39.72 190.002 39.144C188.85 37.944 187.578 36.672 186.186 35.328C184.794 33.96 183.378 32.628 181.938 31.332C180.522 30.036 179.154 28.884 177.834 27.876L178.662 24.708C180.918 24.708 182.79 24.54 184.278 24.204C185.766 23.844 186.942 23.388 187.806 22.836C188.694 22.284 189.318 21.66 189.678 20.964C190.062 20.244 190.254 19.524 190.254 18.804C190.254 18.156 189.99 17.592 189.462 17.112C188.958 16.632 188.25 16.26 187.338 15.996C186.45 15.732 185.418 15.6 184.242 15.6C183.906 15.6 183.486 15.624 182.982 15.672C182.478 15.696 181.974 15.732 181.47 15.78C180.966 15.804 180.534 15.852 180.174 15.924ZM177.33 13.548C177.33 13.116 177.45 12.768 177.69 12.504C177.93 12.24 178.23 12.048 178.59 11.928C178.95 11.784 179.286 11.712 179.598 11.712C179.91 11.712 180.234 11.76 180.57 11.856C180.906 11.928 181.158 12.024 181.326 12.144C181.518 12.264 181.734 12.468 181.974 12.756C182.238 13.02 182.37 13.356 182.37 13.764C182.37 14.604 182.31 15.408 182.19 16.176C182.07 16.944 181.95 17.664 181.83 18.336C181.71 18.984 181.65 19.584 181.65 20.136C181.458 22.056 181.278 23.94 181.11 25.788C180.966 27.636 180.846 29.508 180.75 31.404C180.654 33.276 180.558 35.232 180.462 37.272C180.438 38.04 180.162 38.568 179.634 38.856C179.13 39.144 178.434 39.288 177.546 39.288C176.994 39.288 176.49 39.144 176.034 38.856C175.578 38.568 175.362 38.04 175.386 37.272C175.53 33.312 175.77 29.328 176.106 25.32C176.442 21.312 176.85 17.388 177.33 13.548ZM198.303 13.836C198.207 13.668 198.147 13.512 198.123 13.368C198.099 13.2 198.087 13.044 198.087 12.9C198.087 12.324 198.339 11.844 198.843 11.46C199.371 11.052 199.983 10.848 200.679 10.848C201.039 10.848 201.399 10.932 201.759 11.1C202.143 11.268 202.419 11.58 202.587 12.036C202.827 12.564 203.175 13.284 203.631 14.196C204.111 15.108 204.651 16.104 205.251 17.184C205.851 18.24 206.451 19.296 207.051 20.352C207.651 21.408 208.179 22.344 208.635 23.16C209.907 21.144 211.203 19.152 212.523 17.184C213.867 15.216 215.223 13.356 216.591 11.604C216.855 11.292 217.119 11.088 217.383 10.992C217.671 10.896 217.947 10.848 218.211 10.848C218.571 10.848 218.931 10.944 219.291 11.136C219.651 11.304 219.951 11.544 220.191 11.856C220.431 12.144 220.551 12.504 220.551 12.936C220.551 13.176 220.503 13.416 220.407 13.656C220.311 13.896 220.155 14.16 219.939 14.448C219.003 15.624 218.031 16.92 217.023 18.336C216.015 19.752 215.007 21.216 213.999 22.728C212.991 24.24 212.019 25.764 211.083 27.3C211.155 27.708 211.203 28.08 211.227 28.416C211.251 28.752 211.263 29.268 211.263 29.964C211.263 30.444 211.227 31.14 211.155 32.052C211.107 32.964 211.035 33.936 210.939 34.968C210.843 36 210.711 36.972 210.543 37.884C210.447 38.46 210.195 38.904 209.787 39.216C209.403 39.552 208.875 39.72 208.203 39.72C207.243 39.648 206.547 39.396 206.115 38.964C205.683 38.532 205.563 37.812 205.755 36.804C205.851 36.204 205.947 35.4 206.043 34.392C206.139 33.36 206.211 32.292 206.259 31.188C206.331 30.06 206.355 29.028 206.331 28.092C205.371 26.436 204.399 24.816 203.415 23.232C202.431 21.624 201.495 20.04 200.607 18.48C199.743 16.896 198.975 15.348 198.303 13.836Z" fill="#DC3441"/>
<path d="M230.678 12.864C230.702 12.192 230.954 11.724 231.434 11.46C231.938 11.196 232.49 11.064 233.09 11.064C233.498 11.064 233.894 11.124 234.278 11.244C234.662 11.34 234.986 11.52 235.25 11.784C235.514 12.048 235.634 12.408 235.61 12.864C235.538 16.248 235.43 19.764 235.286 23.412C235.166 27.036 235.01 30.708 234.818 34.428C235.394 34.356 236.042 34.296 236.762 34.248C237.482 34.176 238.214 34.14 238.958 34.14C239.942 34.14 240.866 34.188 241.73 34.284C242.594 34.356 243.302 34.452 243.854 34.572C244.43 34.716 244.85 34.98 245.114 35.364C245.378 35.748 245.51 36.18 245.51 36.66C245.51 37.068 245.45 37.488 245.33 37.92C245.21 38.328 244.994 38.664 244.682 38.928C244.394 39.192 243.974 39.276 243.422 39.18C242.75 39.06 241.946 38.964 241.01 38.892C240.074 38.82 238.994 38.784 237.77 38.784C237.29 38.784 236.726 38.796 236.078 38.82C235.43 38.844 234.806 38.892 234.206 38.964C233.63 39.012 233.174 39.072 232.838 39.144C231.974 39.336 231.254 39.252 230.678 38.892C230.102 38.508 229.838 37.872 229.886 36.984C230.078 33.024 230.234 29.004 230.354 24.924C230.498 20.844 230.606 16.824 230.678 12.864ZM270.539 39.684C269.843 39.684 269.267 39.564 268.811 39.324C268.355 39.108 267.995 38.652 267.731 37.956C267.539 37.38 267.263 36.588 266.903 35.58C266.567 34.572 266.183 33.42 265.751 32.124C265.319 30.828 264.863 29.484 264.383 28.092C263.927 26.7 263.483 25.332 263.051 23.988C262.643 22.644 262.259 21.408 261.899 20.28C261.563 19.152 261.299 18.228 261.107 17.508C260.267 19.236 259.511 20.964 258.839 22.692C258.191 24.42 257.567 26.136 256.967 27.84C256.367 29.544 255.731 31.248 255.059 32.952C254.411 34.656 253.643 36.384 252.755 38.136C252.491 38.664 252.119 39.012 251.639 39.18C251.183 39.348 250.607 39.432 249.911 39.432C249.407 39.432 248.951 39.312 248.543 39.072C248.159 38.832 247.907 38.52 247.787 38.136C247.691 37.728 247.763 37.296 248.003 36.84C248.147 36.552 248.459 35.892 248.939 34.86C249.443 33.828 250.031 32.52 250.703 30.936C251.351 29.352 252.011 27.708 252.683 26.004C253.379 24.3 254.075 22.608 254.771 20.928C255.467 19.248 256.151 17.652 256.823 16.14C257.495 14.628 258.167 13.284 258.839 12.108C259.223 11.46 259.607 11.04 259.991 10.848C260.375 10.656 260.843 10.56 261.395 10.56C262.067 10.56 262.655 10.68 263.159 10.92C263.687 11.16 264.035 11.652 264.203 12.396C264.347 12.948 264.539 13.68 264.779 14.592C265.043 15.504 265.331 16.452 265.643 17.436C266.003 18.564 266.447 19.872 266.975 21.36C267.527 22.848 268.103 24.408 268.703 26.04C269.327 27.648 269.927 29.208 270.503 30.72C271.103 32.232 271.631 33.588 272.087 34.788C272.543 35.964 272.891 36.864 273.131 37.488C273.155 37.56 273.167 37.632 273.167 37.704C273.191 37.776 273.203 37.848 273.203 37.92C273.203 38.16 273.119 38.424 272.951 38.712C272.783 38.976 272.507 39.204 272.123 39.396C271.739 39.588 271.211 39.684 270.539 39.684ZM254.807 31.512C253.943 31.608 253.379 31.392 253.115 30.864C252.875 30.312 252.755 29.58 252.755 28.668C252.755 28.404 252.839 28.092 253.007 27.732C253.175 27.372 253.451 27.168 253.835 27.12C255.011 26.952 256.283 26.844 257.651 26.796C259.043 26.748 260.447 26.736 261.863 26.76C263.279 26.76 264.659 26.772 266.003 26.796C267.347 26.796 268.571 26.772 269.675 26.724C270.227 26.676 270.647 26.868 270.935 27.3C271.247 27.732 271.403 28.26 271.403 28.884C271.403 29.7 271.211 30.312 270.827 30.72C270.443 31.128 269.999 31.32 269.495 31.296C268.319 31.272 267.071 31.26 265.751 31.26C264.455 31.236 263.147 31.236 261.827 31.26C260.507 31.26 259.247 31.284 258.047 31.332C256.847 31.356 255.767 31.416 254.807 31.512ZM278.248 13.008C278.272 12.408 278.476 11.952 278.86 11.64C279.268 11.304 279.904 11.124 280.768 11.1C281.152 11.076 281.536 11.124 281.92 11.244C282.304 11.364 282.628 11.532 282.892 11.748C283.156 11.964 283.288 12.228 283.288 12.54C283.12 16.692 283.048 20.892 283.072 25.14C283.096 29.388 282.976 33.624 282.712 37.848C282.688 38.304 282.436 38.676 281.956 38.964C281.476 39.228 280.96 39.372 280.408 39.396C279.544 39.42 278.872 39.3 278.392 39.036C277.912 38.796 277.684 38.388 277.708 37.812C277.876 35.22 277.972 32.532 277.996 29.748C278.02 26.964 278.032 24.156 278.032 21.324C278.056 18.492 278.128 15.72 278.248 13.008ZM281.524 15.42V11.64C282.004 11.496 282.652 11.352 283.468 11.208C284.308 11.064 285.4 10.992 286.744 10.992C287.752 10.992 288.808 11.088 289.912 11.28C291.016 11.448 292.048 11.76 293.008 12.216C293.992 12.672 294.784 13.308 295.384 14.124C295.984 14.916 296.284 15.936 296.284 17.184C296.284 18.384 295.9 19.596 295.132 20.82C294.364 22.02 293.044 23.004 291.172 23.772C292.636 24.132 293.836 24.648 294.772 25.32C295.732 25.968 296.428 26.724 296.86 27.588C297.316 28.428 297.544 29.316 297.544 30.252C297.544 31.644 297.136 32.892 296.32 33.996C295.528 35.076 294.472 35.988 293.152 36.732C291.832 37.476 290.392 38.052 288.832 38.46C287.272 38.844 285.724 39.036 284.188 39.036C283.324 39.036 282.484 39 281.668 38.928C280.876 38.856 280.276 38.784 279.868 38.712L280.264 34.572C280.816 34.668 281.392 34.74 281.992 34.788C282.616 34.812 283.18 34.824 283.684 34.824C284.764 34.824 285.82 34.728 286.852 34.536C287.884 34.344 288.82 34.044 289.66 33.636C290.5 33.228 291.16 32.736 291.64 32.16C292.144 31.56 292.396 30.852 292.396 30.036C292.396 29.388 292.204 28.824 291.82 28.344C291.436 27.864 290.932 27.468 290.308 27.156C289.684 26.82 289 26.568 288.256 26.4C287.536 26.232 286.816 26.148 286.096 26.148C285.4 26.244 284.788 26.328 284.26 26.4C283.732 26.448 283.228 26.472 282.748 26.472C281.788 26.472 281.044 26.328 280.516 26.04C280.012 25.752 279.76 25.116 279.76 24.132C279.76 23.868 279.784 23.58 279.832 23.268C279.88 22.932 279.976 22.644 280.12 22.404C280.264 22.14 280.456 22.02 280.696 22.044C281.104 22.068 281.488 22.104 281.848 22.152C282.232 22.176 282.64 22.188 283.072 22.188C283.96 22.188 284.884 22.104 285.844 21.936C286.828 21.744 287.74 21.468 288.58 21.108C289.42 20.724 290.092 20.244 290.596 19.668C291.124 19.092 291.388 18.396 291.388 17.58C291.388 16.932 291.16 16.416 290.704 16.032C290.248 15.624 289.648 15.336 288.904 15.168C288.16 15 287.368 14.916 286.528 14.916C286.024 14.916 285.436 14.952 284.764 15.024C284.116 15.072 283.492 15.144 282.892 15.24C282.292 15.312 281.836 15.372 281.524 15.42ZM319.428 13.332C319.62 13.452 319.776 13.632 319.896 13.872C320.04 14.088 320.112 14.388 320.112 14.772C320.112 15.252 320.004 15.708 319.788 16.14C319.596 16.548 319.332 16.872 318.996 17.112C318.684 17.352 318.336 17.472 317.952 17.472C317.736 17.472 317.496 17.412 317.232 17.292C316.968 17.172 316.62 17.004 316.188 16.788C315.468 16.428 314.724 16.14 313.956 15.924C313.212 15.708 312.3 15.6 311.22 15.6C310.332 15.6 309.576 15.72 308.952 15.96C308.328 16.2 307.836 16.524 307.476 16.932C307.14 17.34 306.972 17.796 306.972 18.3C306.972 18.948 307.2 19.512 307.656 19.992C308.136 20.448 308.772 20.892 309.564 21.324C310.38 21.732 311.292 22.188 312.3 22.692C314.172 23.58 315.708 24.444 316.908 25.284C318.132 26.124 319.032 27.06 319.608 28.092C320.208 29.1 320.508 30.3 320.508 31.692C320.508 32.724 320.28 33.72 319.824 34.68C319.368 35.64 318.708 36.492 317.844 37.236C317.004 37.98 315.996 38.568 314.82 39C313.644 39.456 312.324 39.684 310.86 39.684C309.78 39.684 308.712 39.576 307.656 39.36C306.6 39.144 305.64 38.856 304.776 38.496C303.912 38.136 303.216 37.776 302.688 37.416C301.968 36.84 301.608 36.24 301.608 35.616C301.608 35.208 301.716 34.8 301.932 34.392C302.172 33.984 302.448 33.648 302.76 33.384C303.096 33.096 303.408 32.952 303.696 32.952C303.888 32.952 304.104 33.012 304.344 33.132C304.608 33.228 304.896 33.372 305.208 33.564C305.904 33.948 306.696 34.308 307.584 34.644C308.496 34.98 309.576 35.148 310.824 35.148C311.76 35.148 312.564 35.004 313.236 34.716C313.908 34.428 314.436 34.056 314.82 33.6C315.204 33.144 315.396 32.628 315.396 32.052C315.396 31.38 315.18 30.756 314.748 30.18C314.316 29.604 313.668 29.052 312.804 28.524C311.94 27.996 310.848 27.468 309.528 26.94C308.568 26.532 307.632 26.088 306.72 25.608C305.808 25.128 304.98 24.576 304.236 23.952C303.492 23.304 302.904 22.548 302.472 21.684C302.04 20.796 301.824 19.752 301.824 18.552C301.824 17.088 302.22 15.804 303.012 14.7C303.828 13.572 304.956 12.696 306.396 12.072C307.86 11.448 309.552 11.136 311.472 11.136C312.96 11.136 314.412 11.34 315.828 11.748C317.244 12.132 318.444 12.66 319.428 13.332Z" fill="black"/>
<path d="M85.919 47.015C86.7803 47.015 87.585 47.168 88.333 47.474C89.0923 47.78 89.7553 48.2107 90.322 48.766C90.8887 49.3213 91.3307 49.9617 91.648 50.687C91.9767 51.4123 92.141 52.1943 92.141 53.033C92.141 53.8717 91.9767 54.6593 91.648 55.396C91.3307 56.1327 90.8887 56.7787 90.322 57.334C89.7553 57.8893 89.0923 58.3257 88.333 58.643C87.585 58.949 86.7803 59.102 85.919 59.102C85.0463 59.102 84.2303 58.949 83.471 58.643C82.723 58.3257 82.0657 57.8893 81.499 57.334C80.9323 56.7787 80.4847 56.1327 80.156 55.396C79.8387 54.6593 79.68 53.8717 79.68 53.033C79.68 52.1943 79.8387 51.4123 80.156 50.687C80.4847 49.9503 80.9323 49.31 81.499 48.766C82.0657 48.2107 82.723 47.78 83.471 47.474C84.2303 47.168 85.0463 47.015 85.919 47.015ZM85.919 48.171C85.2503 48.171 84.6213 48.2957 84.032 48.545C83.454 48.7943 82.9383 49.1457 82.485 49.599C82.043 50.041 81.6917 50.5567 81.431 51.146C81.1817 51.7353 81.057 52.3643 81.057 53.033C81.057 53.713 81.1817 54.3477 81.431 54.937C81.6917 55.5263 82.0487 56.0477 82.502 56.501C82.9553 56.9543 83.471 57.3057 84.049 57.555C84.6383 57.8043 85.2617 57.929 85.919 57.929C86.5877 57.929 87.211 57.8043 87.789 57.555C88.3783 57.3057 88.894 56.9543 89.336 56.501C89.778 56.0477 90.1237 55.5263 90.373 54.937C90.6223 54.3477 90.747 53.713 90.747 53.033C90.747 52.3643 90.6223 51.7353 90.373 51.146C90.1237 50.5567 89.778 50.041 89.336 49.599C88.894 49.1457 88.3783 48.7943 87.789 48.545C87.211 48.2957 86.5877 48.171 85.919 48.171ZM101.193 52.2C100.864 51.8713 100.473 51.6163 100.02 51.435C99.5781 51.2423 99.0851 51.146 98.5411 51.146C97.9291 51.146 97.3794 51.2877 96.8921 51.571C96.4161 51.8543 96.0421 52.251 95.7701 52.761C95.4981 53.271 95.3621 53.8603 95.3621 54.529C95.3621 55.1977 95.4981 55.7927 95.7701 56.314C96.0421 56.824 96.4161 57.2263 96.8921 57.521C97.3794 57.8043 97.9291 57.946 98.5411 57.946C99.1191 57.946 99.6461 57.8497 100.122 57.657C100.598 57.453 101 57.1583 101.329 56.773L102.077 57.521C101.68 57.997 101.176 58.371 100.564 58.643C99.9521 58.9037 99.2608 59.034 98.4901 59.034C97.6288 59.034 96.8638 58.847 96.1951 58.473C95.5264 58.0877 94.9994 57.555 94.6141 56.875C94.2401 56.195 94.0531 55.413 94.0531 54.529C94.0531 53.645 94.2401 52.8687 94.6141 52.2C94.9994 51.52 95.5264 50.9873 96.1951 50.602C96.8638 50.2167 97.6288 50.024 98.4901 50.024C99.2154 50.024 99.8671 50.143 100.445 50.381C101.034 50.6077 101.533 50.925 101.941 51.333L101.193 52.2ZM110.801 52.2C110.472 51.8713 110.081 51.6163 109.628 51.435C109.186 51.2423 108.693 51.146 108.149 51.146C107.537 51.146 106.987 51.2877 106.5 51.571C106.024 51.8543 105.65 52.251 105.378 52.761C105.106 53.271 104.97 53.8603 104.97 54.529C104.97 55.1977 105.106 55.7927 105.378 56.314C105.65 56.824 106.024 57.2263 106.5 57.521C106.987 57.8043 107.537 57.946 108.149 57.946C108.727 57.946 109.254 57.8497 109.73 57.657C110.206 57.453 110.608 57.1583 110.937 56.773L111.685 57.521C111.288 57.997 110.784 58.371 110.172 58.643C109.56 58.9037 108.868 59.034 108.098 59.034C107.236 59.034 106.471 58.847 105.803 58.473C105.134 58.0877 104.607 57.555 104.222 56.875C103.848 56.195 103.661 55.413 103.661 54.529C103.661 53.645 103.848 52.8687 104.222 52.2C104.607 51.52 105.134 50.9873 105.803 50.602C106.471 50.2167 107.236 50.024 108.098 50.024C108.823 50.024 109.475 50.143 110.053 50.381C110.642 50.6077 111.141 50.925 111.549 51.333L110.801 52.2ZM115.621 55.26C115.621 56.0647 115.842 56.6993 116.284 57.164C116.726 57.6173 117.332 57.844 118.103 57.844C119.032 57.8213 119.752 57.4983 120.262 56.875C120.783 56.2517 121.044 55.4413 121.044 54.444H121.486C121.486 55.4867 121.327 56.348 121.01 57.028C120.704 57.6967 120.262 58.1953 119.684 58.524C119.117 58.8527 118.437 59.0227 117.644 59.034C116.953 59.034 116.358 58.898 115.859 58.626C115.36 58.3427 114.975 57.9403 114.703 57.419C114.431 56.8977 114.295 56.28 114.295 55.566V50.058H115.621V55.26ZM121.044 50.058H122.37V59H121.044V50.058ZM130.98 50.024C131.83 50.024 132.578 50.2167 133.224 50.602C133.87 50.9873 134.374 51.52 134.737 52.2C135.1 52.88 135.281 53.662 135.281 54.546C135.281 55.4187 135.1 56.195 134.737 56.875C134.374 57.555 133.87 58.0877 133.224 58.473C132.589 58.847 131.847 59.034 130.997 59.034C130.181 59.034 129.467 58.8527 128.855 58.49C128.254 58.116 127.784 57.5947 127.444 56.926C127.115 56.246 126.951 55.4527 126.951 54.546C126.951 53.628 127.115 52.829 127.444 52.149C127.784 51.469 128.254 50.9477 128.855 50.585C129.467 50.211 130.175 50.024 130.98 50.024ZM130.742 51.095C130.119 51.095 129.563 51.248 129.076 51.554C128.589 51.8487 128.209 52.251 127.937 52.761C127.665 53.271 127.529 53.8603 127.529 54.529C127.529 55.1863 127.665 55.7757 127.937 56.297C128.209 56.807 128.589 57.2093 129.076 57.504C129.563 57.7987 130.119 57.946 130.742 57.946C131.365 57.946 131.915 57.7987 132.391 57.504C132.878 57.2093 133.258 56.807 133.53 56.297C133.802 55.7757 133.938 55.1863 133.938 54.529C133.938 53.8603 133.802 53.271 133.53 52.761C133.258 52.251 132.878 51.8487 132.391 51.554C131.915 51.248 131.365 51.095 130.742 51.095ZM126.203 50.058H127.529V62.298H126.203V50.058ZM140.87 54.801C140.122 54.801 139.556 54.9257 139.17 55.175C138.785 55.4243 138.592 55.804 138.592 56.314C138.592 56.824 138.774 57.2377 139.136 57.555C139.51 57.861 140.015 58.014 140.649 58.014C141.171 58.014 141.641 57.929 142.06 57.759C142.48 57.589 142.825 57.3453 143.097 57.028C143.381 56.7107 143.573 56.3253 143.675 55.872L144.015 56.943C143.698 57.657 143.228 58.1897 142.604 58.541C141.981 58.881 141.244 59.051 140.394 59.051C139.782 59.051 139.244 58.932 138.779 58.694C138.326 58.456 137.975 58.133 137.725 57.725C137.476 57.317 137.351 56.858 137.351 56.348C137.351 55.5773 137.646 54.9653 138.235 54.512C138.825 54.0587 139.646 53.8263 140.7 53.815H143.879V54.801H140.87ZM143.641 53.22C143.641 52.54 143.437 52.013 143.029 51.639C142.633 51.265 142.038 51.078 141.244 51.078C140.746 51.078 140.264 51.1687 139.799 51.35C139.335 51.5313 138.87 51.7863 138.405 52.115L137.844 51.248C138.23 50.9873 138.604 50.7663 138.966 50.585C139.329 50.4037 139.714 50.2677 140.122 50.177C140.53 50.075 140.989 50.024 141.499 50.024C142.61 50.024 143.46 50.3017 144.049 50.857C144.639 51.401 144.939 52.149 144.95 53.101L144.967 59H143.675L143.641 53.22ZM150.07 56.314C150.07 56.8807 150.172 57.2887 150.376 57.538C150.58 57.776 150.874 57.895 151.26 57.895C151.486 57.8837 151.719 57.844 151.957 57.776C152.195 57.6967 152.438 57.5777 152.688 57.419L153.062 58.388C152.756 58.592 152.427 58.7563 152.076 58.881C151.736 58.9943 151.39 59.051 151.039 59.051C150.597 59.051 150.206 58.966 149.866 58.796C149.526 58.6147 149.254 58.337 149.05 57.963C148.857 57.589 148.761 57.1073 148.761 56.518V48.018H150.07V56.314ZM147.469 50.33H152.909V51.316H147.469V50.33ZM155.555 50.058H156.864V59H155.555V50.058ZM156.201 46.641C156.45 46.641 156.654 46.726 156.813 46.896C156.983 47.0547 157.068 47.2587 157.068 47.508C157.068 47.746 156.983 47.95 156.813 48.12C156.654 48.29 156.45 48.375 156.201 48.375C155.963 48.375 155.759 48.29 155.589 48.12C155.419 47.95 155.334 47.746 155.334 47.508C155.334 47.2587 155.419 47.0547 155.589 46.896C155.759 46.726 155.963 46.641 156.201 46.641ZM164.235 50.024C165.119 50.024 165.901 50.2167 166.581 50.602C167.273 50.976 167.811 51.503 168.196 52.183C168.582 52.863 168.774 53.645 168.774 54.529C168.774 55.413 168.582 56.195 168.196 56.875C167.811 57.555 167.273 58.0877 166.581 58.473C165.901 58.847 165.119 59.034 164.235 59.034C163.351 59.034 162.564 58.847 161.872 58.473C161.192 58.0877 160.66 57.555 160.274 56.875C159.889 56.195 159.696 55.413 159.696 54.529C159.696 53.645 159.889 52.863 160.274 52.183C160.66 51.503 161.192 50.976 161.872 50.602C162.564 50.2167 163.351 50.024 164.235 50.024ZM164.235 51.129C163.612 51.129 163.057 51.2763 162.569 51.571C162.082 51.8543 161.702 52.251 161.43 52.761C161.158 53.271 161.022 53.8603 161.022 54.529C161.022 55.209 161.158 55.8097 161.43 56.331C161.702 56.841 162.082 57.2433 162.569 57.538C163.057 57.8213 163.612 57.963 164.235 57.963C164.87 57.963 165.425 57.8213 165.901 57.538C166.389 57.2433 166.768 56.841 167.04 56.331C167.312 55.8097 167.448 55.209 167.448 54.529C167.448 53.8603 167.312 53.271 167.04 52.761C166.768 52.251 166.389 51.8543 165.901 51.571C165.425 51.2763 164.87 51.129 164.235 51.129ZM178.484 53.815C178.484 52.999 178.257 52.3643 177.804 51.911C177.362 51.4463 176.744 51.214 175.951 51.214C174.999 51.2253 174.257 51.5483 173.724 52.183C173.191 52.8063 172.925 53.6167 172.925 54.614H172.466C172.466 53.5713 172.625 52.7157 172.942 52.047C173.259 51.367 173.713 50.8627 174.302 50.534C174.903 50.194 175.605 50.024 176.41 50.024C177.124 50.024 177.736 50.1657 178.246 50.449C178.756 50.7323 179.141 51.1347 179.402 51.656C179.674 52.166 179.81 52.7837 179.81 53.509V59H178.484V53.815ZM171.616 50.058H172.942V59H171.616V50.058ZM186.036 54.801C185.288 54.801 184.722 54.9257 184.336 55.175C183.951 55.4243 183.758 55.804 183.758 56.314C183.758 56.824 183.94 57.2377 184.302 57.555C184.676 57.861 185.181 58.014 185.815 58.014C186.337 58.014 186.807 57.929 187.226 57.759C187.646 57.589 187.991 57.3453 188.263 57.028C188.547 56.7107 188.739 56.3253 188.841 55.872L189.181 56.943C188.864 57.657 188.394 58.1897 187.77 58.541C187.147 58.881 186.41 59.051 185.56 59.051C184.948 59.051 184.41 58.932 183.945 58.694C183.492 58.456 183.141 58.133 182.891 57.725C182.642 57.317 182.517 56.858 182.517 56.348C182.517 55.5773 182.812 54.9653 183.401 54.512C183.991 54.0587 184.812 53.8263 185.866 53.815H189.045V54.801H186.036ZM188.807 53.22C188.807 52.54 188.603 52.013 188.195 51.639C187.799 51.265 187.204 51.078 186.41 51.078C185.912 51.078 185.43 51.1687 184.965 51.35C184.501 51.5313 184.036 51.7863 183.571 52.115L183.01 51.248C183.396 50.9873 183.77 50.7663 184.132 50.585C184.495 50.4037 184.88 50.2677 185.288 50.177C185.696 50.075 186.155 50.024 186.665 50.024C187.776 50.024 188.626 50.3017 189.215 50.857C189.805 51.401 190.105 52.149 190.116 53.101L190.133 59H188.841L188.807 53.22ZM193.689 46.386H195.015V59H193.689V46.386ZM202.045 47.1H211.174V48.29H207.281V59H205.921V48.29H202.045V47.1ZM219.436 53.815C219.436 52.999 219.209 52.3643 218.756 51.911C218.314 51.4463 217.696 51.214 216.903 51.214C215.951 51.2253 215.209 51.5483 214.676 52.183C214.143 52.8063 213.877 53.6167 213.877 54.614H213.418C213.418 53.5713 213.577 52.7157 213.894 52.047C214.211 51.367 214.665 50.8627 215.254 50.534C215.855 50.194 216.557 50.024 217.362 50.024C218.076 50.024 218.688 50.1657 219.198 50.449C219.708 50.7323 220.093 51.1347 220.354 51.656C220.626 52.166 220.762 52.7837 220.762 53.509V59H219.436V53.815ZM212.551 46.386H213.877V59H212.551V46.386ZM230.76 54.002C230.737 53.4013 230.595 52.8857 230.335 52.455C230.085 52.013 229.74 51.673 229.298 51.435C228.867 51.197 228.357 51.078 227.768 51.078C227.144 51.078 226.595 51.2197 226.119 51.503C225.654 51.7863 225.286 52.183 225.014 52.693C224.742 53.203 224.606 53.798 224.606 54.478C224.606 55.1807 224.742 55.7983 225.014 56.331C225.297 56.8523 225.688 57.2603 226.187 57.555C226.685 57.8497 227.252 57.997 227.887 57.997C229.02 57.997 229.944 57.6117 230.658 56.841L231.389 57.572C230.958 58.0367 230.437 58.3993 229.825 58.66C229.213 58.9093 228.538 59.034 227.802 59.034C226.918 59.034 226.136 58.847 225.456 58.473C224.787 58.0877 224.266 57.555 223.892 56.875C223.518 56.195 223.331 55.413 223.331 54.529C223.331 53.645 223.518 52.8687 223.892 52.2C224.266 51.52 224.787 50.993 225.456 50.619C226.136 50.2337 226.906 50.0353 227.768 50.024C228.731 50.024 229.53 50.2337 230.165 50.653C230.799 51.061 231.264 51.639 231.559 52.387C231.865 53.1237 231.989 53.9907 231.933 54.988H224.368V54.002H230.76ZM239.275 51.231C238.606 51.2197 238.028 51.3613 237.541 51.656C237.065 51.9393 236.697 52.3417 236.436 52.863C236.175 53.373 236.045 53.9737 236.045 54.665L235.586 54.614C235.586 53.6393 235.733 52.812 236.028 52.132C236.323 51.452 236.748 50.9307 237.303 50.568C237.858 50.2053 238.516 50.024 239.275 50.024V51.231ZM234.736 50.058H236.062V59H234.736V50.058ZM243.893 54.801C243.145 54.801 242.579 54.9257 242.193 55.175C241.808 55.4243 241.615 55.804 241.615 56.314C241.615 56.824 241.797 57.2377 242.159 57.555C242.533 57.861 243.038 58.014 243.672 58.014C244.194 58.014 244.664 57.929 245.083 57.759C245.503 57.589 245.848 57.3453 246.12 57.028C246.404 56.7107 246.596 56.3253 246.698 55.872L247.038 56.943C246.721 57.657 246.251 58.1897 245.627 58.541C245.004 58.881 244.267 59.051 243.417 59.051C242.805 59.051 242.267 58.932 241.802 58.694C241.349 58.456 240.998 58.133 240.748 57.725C240.499 57.317 240.374 56.858 240.374 56.348C240.374 55.5773 240.669 54.9653 241.258 54.512C241.848 54.0587 242.669 53.8263 243.723 53.815H246.902V54.801H243.893ZM246.664 53.22C246.664 52.54 246.46 52.013 246.052 51.639C245.656 51.265 245.061 51.078 244.267 51.078C243.769 51.078 243.287 51.1687 242.822 51.35C242.358 51.5313 241.893 51.7863 241.428 52.115L240.867 51.248C241.253 50.9873 241.627 50.7663 241.989 50.585C242.352 50.4037 242.737 50.2677 243.145 50.177C243.553 50.075 244.012 50.024 244.522 50.024C245.633 50.024 246.483 50.3017 247.072 50.857C247.662 51.401 247.962 52.149 247.973 53.101L247.99 59H246.698L246.664 53.22ZM256.323 50.024C257.173 50.024 257.921 50.2167 258.567 50.602C259.213 50.9873 259.717 51.52 260.08 52.2C260.443 52.88 260.624 53.662 260.624 54.546C260.624 55.4187 260.443 56.195 260.08 56.875C259.717 57.555 259.213 58.0877 258.567 58.473C257.932 58.847 257.19 59.034 256.34 59.034C255.524 59.034 254.81 58.8527 254.198 58.49C253.597 58.116 253.127 57.5947 252.787 56.926C252.458 56.246 252.294 55.4527 252.294 54.546C252.294 53.628 252.458 52.829 252.787 52.149C253.127 51.469 253.597 50.9477 254.198 50.585C254.81 50.211 255.518 50.024 256.323 50.024ZM256.085 51.095C255.462 51.095 254.906 51.248 254.419 51.554C253.932 51.8487 253.552 52.251 253.28 52.761C253.008 53.271 252.872 53.8603 252.872 54.529C252.872 55.1863 253.008 55.7757 253.28 56.297C253.552 56.807 253.932 57.2093 254.419 57.504C254.906 57.7987 255.462 57.946 256.085 57.946C256.708 57.946 257.258 57.7987 257.734 57.504C258.221 57.2093 258.601 56.807 258.873 56.297C259.145 55.7757 259.281 55.1863 259.281 54.529C259.281 53.8603 259.145 53.271 258.873 52.761C258.601 52.251 258.221 51.8487 257.734 51.554C257.258 51.248 256.708 51.095 256.085 51.095ZM251.546 50.058H252.872V62.298H251.546V50.058ZM266.033 60.275C265.75 60.955 265.376 61.4707 264.911 61.822C264.458 62.1733 263.936 62.349 263.347 62.349C262.973 62.349 262.633 62.298 262.327 62.196C262.021 62.094 261.732 61.9353 261.46 61.72L262.021 60.734C262.418 61.006 262.837 61.142 263.279 61.142C263.619 61.142 263.931 61.0287 264.214 60.802C264.509 60.5867 264.741 60.258 264.911 59.816L265.285 58.949L261.579 50.058H262.956L265.948 57.589L268.787 50.058H270.147L266.033 60.275ZM280.655 47.1H282.049L287.37 59H285.908L281.318 48.494L276.762 59H275.334L280.655 47.1ZM277.68 54.733H284.905V55.906H277.68V54.733ZM294.438 50.024C295.288 50.024 296.036 50.2167 296.682 50.602C297.328 50.9873 297.833 51.52 298.195 52.2C298.558 52.88 298.739 53.662 298.739 54.546C298.739 55.4187 298.558 56.195 298.195 56.875C297.833 57.555 297.328 58.0877 296.682 58.473C296.048 58.847 295.305 59.034 294.455 59.034C293.639 59.034 292.925 58.8527 292.313 58.49C291.713 58.116 291.242 57.5947 290.902 56.926C290.574 56.246 290.409 55.4527 290.409 54.546C290.409 53.628 290.574 52.829 290.902 52.149C291.242 51.469 291.713 50.9477 292.313 50.585C292.925 50.211 293.634 50.024 294.438 50.024ZM294.2 51.095C293.577 51.095 293.022 51.248 292.534 51.554C292.047 51.8487 291.667 52.251 291.395 52.761C291.123 53.271 290.987 53.8603 290.987 54.529C290.987 55.1863 291.123 55.7757 291.395 56.297C291.667 56.807 292.047 57.2093 292.534 57.504C293.022 57.7987 293.577 57.946 294.2 57.946C294.824 57.946 295.373 57.7987 295.849 57.504C296.337 57.2093 296.716 56.807 296.988 56.297C297.26 55.7757 297.396 55.1863 297.396 54.529C297.396 53.8603 297.26 53.271 296.988 52.761C296.716 52.251 296.337 51.8487 295.849 51.554C295.373 51.248 294.824 51.095 294.2 51.095ZM289.661 50.058H290.987V62.298H289.661V50.058ZM306.436 50.024C307.286 50.024 308.034 50.2167 308.68 50.602C309.326 50.9873 309.831 51.52 310.193 52.2C310.556 52.88 310.737 53.662 310.737 54.546C310.737 55.4187 310.556 56.195 310.193 56.875C309.831 57.555 309.326 58.0877 308.68 58.473C308.046 58.847 307.303 59.034 306.453 59.034C305.637 59.034 304.923 58.8527 304.311 58.49C303.711 58.116 303.24 57.5947 302.9 56.926C302.572 56.246 302.407 55.4527 302.407 54.546C302.407 53.628 302.572 52.829 302.9 52.149C303.24 51.469 303.711 50.9477 304.311 50.585C304.923 50.211 305.632 50.024 306.436 50.024ZM306.198 51.095C305.575 51.095 305.02 51.248 304.532 51.554C304.045 51.8487 303.665 52.251 303.393 52.761C303.121 53.271 302.985 53.8603 302.985 54.529C302.985 55.1863 303.121 55.7757 303.393 56.297C303.665 56.807 304.045 57.2093 304.532 57.504C305.02 57.7987 305.575 57.946 306.198 57.946C306.822 57.946 307.371 57.7987 307.847 57.504C308.335 57.2093 308.714 56.807 308.986 56.297C309.258 55.7757 309.394 55.1863 309.394 54.529C309.394 53.8603 309.258 53.271 308.986 52.761C308.714 52.251 308.335 51.8487 307.847 51.554C307.371 51.248 306.822 51.095 306.198 51.095ZM301.659 50.058H302.985V62.298H301.659V50.058ZM318.299 51.758C317.947 51.5427 317.556 51.3727 317.126 51.248C316.695 51.1233 316.276 51.061 315.868 51.061C315.369 51.061 314.95 51.163 314.61 51.367C314.27 51.5597 314.1 51.877 314.1 52.319C314.1 52.659 314.219 52.931 314.457 53.135C314.706 53.3277 315.018 53.492 315.392 53.628C315.777 53.7527 316.179 53.8773 316.599 54.002C317.018 54.1267 317.42 54.2853 317.806 54.478C318.191 54.6593 318.503 54.9143 318.741 55.243C318.979 55.5717 319.098 56.0023 319.098 56.535C319.098 57.113 318.939 57.589 318.622 57.963C318.316 58.3257 317.913 58.5977 317.415 58.779C316.927 58.949 316.395 59.034 315.817 59.034C315.182 59.034 314.559 58.9263 313.947 58.711C313.335 58.4957 312.813 58.1897 312.383 57.793L312.893 56.892C313.278 57.2433 313.737 57.521 314.27 57.725C314.814 57.9177 315.346 58.014 315.868 58.014C316.219 58.014 316.536 57.9687 316.82 57.878C317.114 57.776 317.347 57.6287 317.517 57.436C317.698 57.232 317.789 56.977 317.789 56.671C317.8 56.297 317.687 56.008 317.449 55.804C317.222 55.5887 316.916 55.413 316.531 55.277C316.157 55.141 315.754 55.0107 315.324 54.886C314.904 54.7613 314.502 54.6083 314.117 54.427C313.743 54.2343 313.437 53.985 313.199 53.679C312.961 53.3617 312.842 52.9367 312.842 52.404C312.842 51.8487 312.989 51.3953 313.284 51.044C313.578 50.6927 313.958 50.432 314.423 50.262C314.899 50.092 315.409 50.007 315.953 50.007C316.485 50.007 317.001 50.0807 317.5 50.228C317.998 50.364 318.435 50.5567 318.809 50.806L318.299 51.758Z" fill="black"/>
<rect width="59" height="59" fill="#DC3441"/>
<rect x="51" y="24" width="10" height="43" transform="rotate(90 51 24)" fill="#FFF6F6"/>
<rect x="34" y="51" width="10" height="43" transform="rotate(-180 34 51)" fill="#FFF6F6"/>
<circle cx="45" cy="14" r="5" fill="white"/>
</svg>
